#!OML:ASF F:\VICON\USERDATA\INSTALL\rory3\rory3.ASF
:FULLY-SPECIFIED
:DEGREES
1
root 0.41069490781999946 18.049291438209035 -29.325883014352428 -3.4547743179045862 -0.9963814739860184 -0.7637816445171255
lfemur -12.478696856664701 0.0032353312337081164 -23.031993966103318
ltibia 22.999205491830836
lfoot -4.779722397861904 -3.8768185109236937
ltoes -28.359276018373095
rfemur -13.58720026812026 -1.3730589757925191 22.79140656117643
rtibia 71.87848201336033
rfoot 4.370445483317506 -6.678694637423615
rtoes 2.5044796707516475
lowerback 12.601282523679211 1.0060646851635036 -0.43838087776292456
upperback 0.7028423376401081 1.3257565312471518 0.7980880161940487
thorax -6.361365872640888 0.6727129478477243 0.8514609597100034
lowerneck -16.81429624072249 -3.4824883780946427 -1.8858115008039351
upperneck 21.46949946284235 -4.571050462823156 0.9233516730868512
head 9.637298478619575 -2.1713785889874524 0.032206477700793185
lclavicle 2.9911143006703457e-16 5.531455621769163e-17
lhumerus -32.4498963046975 9.24840069043957 80.34690235130861
lradius 21.328208602053635
lwrist 5.319765701153827
lhand -25.309221635574985 20.92739609817862
lfingers 7.125020000000001
lthumb 1.2129283630211596 50.90369605897611
rclavicle 2.9911143006703457e-16 5.531455621769163e-17
rhumerus -25.99040745410727 -20.085800212858363 -79.56719335235418
rradius 25.46760575888904
rwrist 5.997784260098974
rhand -18.41379654432374 23.15189742941852
rfingers 7.125020000000001
rthumb 7.871013454547767 -6.681582497872471
2
root 0.45297959118653663 18.06659040087204 -28.700883281051063 -3.8201517350032974 -0.5581800493010458 -0.6461969793132813
lfemur -10.21589834966683 -0.21025863850301652 -23.4502933010913
ltibia 23.787305035260687
lfoot -6.736460273148478 -2.5556006072683233
ltoes -27.29497726039818
rfemur -18.14309700562506 -2.1807164620916737 22.71420668687602
rtibia 74.2483807500856
rfoot -0.03876989499262873 -8.659289234876244
rtoes -1.2459154003695705
lowerback 13.107376878514108 0.8303078555215824 -0.5967984770653765
upperback 0.6256542346564211 1.0627576220671027 0.7098521698610698
thorax -6.722718642531461 0.5483451096292382 0.8888208180583252
lowerneck -16.511499989942475 -3.351921574859058 -1.6222262080464562
upperneck 21.83329498258199 -4.4846516187895835 0.9632642680673341
head 9.702216517776355 -2.1051110977575007 0.016152248279504983
lclavicle 2.991114041799812e-16 5.5314560360102114e-17
lhumerus -30.862199037679627 7.961922898156244 80.09900343740954
lradius 21.325008608364325
lwrist 5.289695784731899
lhand -24.9954232325239 17.996601792094022
lfingers 7.125020000000001
lthumb 1.5160167658354426 47.970901744185355
rclavicle 2.991114041799812e-16 5.5314560360102114e-17
rhumerus -28.093104099944753 -22.8051955509734 -78.39339622793298
rradius 24.668707436364965
rwrist 6.1800437866195015
rhand -14.87822449794194 14.734132190140336
rfingers 7.125020000000001
rthumb 11.282175506637252 -14.942468252778605
3
root 0.48834848989236046 18.058990856580778 -28.06038355436366 -3.8760313399829753 0.5550669486245065 -0.47670846189409755
lfemur -7.9822298234489 -0.6808675438191996 -23.91259256612822
ltibia 24.122904840837485
lfoot -8.793608039405507 -1.696221970823713
ltoes -26.2365784955382
rfemur -22.366493981234235 -3.2967029887675148 22.681106740770524
rtibia 73.99148088702607
rfoot -3.038725742242808 -7.622962061707464
rtoes 1.7794006236717181
lowerback 12.950578627500253 0.3143192914699054 -1.1208151516305764
upperback 0.3839441750527782 0.320422700991431 0.9711037540459704
thorax -6.880655482459836 0.20934127643178588 1.6009691179141952
lowerneck -15.377014037135568 -3.18747560111247 -1.9320206755765863
upperneck 21.985093113138554 -4.163305918208697 0.8274256465117303
head 9.543441313566355 -2.005244878515985 0.08080085331111608
lclavicle 2.9911140113938493e-16 5.5314577620128676e-17
lhumerus -30.045300443847733 6.699665064309214 80.53450152939439
lradius 22.576506140298314
lwrist 6.04800367704697
lhand -25.05722291801962 23.20079168145033
lfingers 7.125020000000001
lthumb 1.4563170804350385 53.175491655110044
rclavicle 2.9911140113938493e-16 5.5314577620128676e-17
rhumerus -30.297100584191583 -23.06399510731089 -77.3699987350614
rradius 24.198508423658982
rwrist 5.75236489765703
rhand -14.646226332210365 11.707044690340089
rfingers 7.125020000000001
rthumb 11.505973673041833 -17.95715575554049
4
root 0.5192015292101293 18.01149370476039 -27.442683817947234 -3.794551915971806 1.6081731627535611 0.10221088976195292
lfemur -6.311520925788297 -0.8856456323503694 -24.779591187774365
ltibia 24.9965043347346
lfoot -10.80849585155028 -1.317462571792126
ltoes -21.61858388468802
rfemur -26.128291287396735 -3.888101148138194 22.186707545768936
rtibia 71.28628232903233
rfoot -7.364810619001665 -7.199993215456565
rtoes -2.6814035138091326
lowerback 13.043477591270577 0.06638594244869514 -1.6412338352964502
upperback 0.9487872931646757 -0.09761466514777395 0.8003999859654796
thorax -6.315736785608269 0.008944268439394998 1.7902184003665447
lowerneck -17.95808207837832 -3.247174139468636 -1.4631090496429908
upperneck 22.61798531886482 -4.275894411839946 0.5639663200078808
head 10.23728035622381 -2.026624069137629 -0.15456644764450606
lclavicle 2.9911142035643678e-16 5.531454337624606e-17
lhumerus -26.968805739570797 4.225909309506371 81.0728991705532
lradius 23.377604560459968
lwrist 8.173067770520612
lhand -25.131822538375296 18.646000530449193
lfingers 7.125020000000001
lthumb 1.3842274603258797 48.62130048339018
rclavicle 2.9911142035643678e-16 5.531454337624606e-17
rhumerus -30.616300075013537 -24.16779321505944 -77.3257988433427
rradius 24.36250807930291
rwrist 6.212743701670644
rhand -17.14790655294612 23.441996231470664
rfingers 7.125020000000001
rthumb 9.0926434456402 -6.3420139055373
5
root 0.5456637052477934 17.933698369778785 -26.81878408417635 -3.5683935147154564 2.187751079196203 0.2886153590167333
lfemur -4.798661923977797 -1.027255002045993 -25.1626905787232
ltibia 26.019303742195678
lfoot -13.174793282118797 -0.531899818225634
ltoes -21.827983640320788
rfemur -29.211189079721755 -3.948490960184838 22.19210753697648
rtibia 66.06308511325797
rfoot -9.71863783144091 -7.27943299876548
rtoes -2.120794250578223
lowerback 13.387873749747438 -0.29664564013773265 -2.0347828398633414
upperback 0.6922555978255189 -0.6284803633177545 1.0282400070002573
thorax -6.751468067299986 -0.22752664256881797 2.3589562439699785
lowerneck -17.848783431713013 -3.035439323530037 -1.6232861891167674
upperneck 22.3034891919871 -3.870129840734588 0.3362196311042627
head 10.097684572701226 -1.883879473195641 -0.14643468600125392
lclavicle 2.991114242742655e-16 5.531453923379945e-17
lhumerus -25.95190749000824 3.2271610234522115 81.21789853527835
lradius 25.107601148750657
lwrist 8.454436988466696
lhand -27.497810497645062 18.789200252242324
lfingers 7.125020000000001
lthumb -0.9009334975557663 48.76710020075805
rclavicle 2.991114242742655e-16 5.531453923379945e-17
rhumerus -31.96909791706849 -23.371194580675947 -76.90469987495476
rradius 24.291408228593863
rwrist 5.8807545641223555
rhand -16.640810562245758 21.83420287076936
rfingers 7.125020000000001
rthumb 9.581929436882803 -7.927937331170073
6
root 0.5720078849595522 17.90280022259457 -26.181784355995447 -3.2488957732872477 2.8270187810566774 0.8664257138304068
lfemur -2.211573630947421 -1.083034753769891 -25.935189350605114
ltibia 24.856204416014627
lfoot -14.450691896691058 -0.0769148401393438
ltoes -21.28018427959672
rfemur -30.90528786657105 -4.066640592463593 21.619008470116835
rtibia 58.15168933042801
rfoot -11.183396096775494 -9.27557755380186
rtoes -4.068261691159599
lowerback 13.212575705087186 -0.8499999553722848 -3.018330352102624
upperback 0.28251266788802326 -1.4868018033252344 1.3734854929807638
thorax -7.009432905822985 -0.5991511710402151 3.4478821152557764
lowerneck -16.10730499468064 -2.695777639720349 -2.393652431517867
upperneck 21.571798203000032 -3.2025287728497087 0.2940420591080044
head 9.52008201913163 -1.6550881348311794 0.08882241818443595
lclavicle 2.991113701926858e-16 5.5314591704280434e-17
lhumerus -25.42110840369906 3.6889102310472137 81.17759871184094
lradius 26.139599113557587
lwrist 8.71394626717156
lhand -27.353811230470573 20.158897591209183
lfingers 7.125020000000001
lthumb -0.7617842308310059 50.137297544636354
rclavicle 2.991113701926858e-16 5.5314591704280434e-17
rhumerus -33.591495329065786 -21.978996967333394 -76.16140169589333
rradius 24.200908418619626
rwrist 5.9270644438171125
rhand -18.1500986292228 23.20129722542464
rfingers 7.125020000000001
rthumb 8.125511369426965 -6.622462742950495
7
root 0.5823265636631263 17.885801241943064 -25.532784632935254 -2.7356194017058075 2.772198978131472 1.2869385165138327
lfemur 0.6929984526060577 -0.6592776399160267 -26.36028867478249
ltibia 22.759405630754234
lfoot -15.263591014008885 -0.18089337515910753
ltoes -19.93868584511092
rfemur -31.238787627750618 -3.0221038434121015 21.048309399349435
rtibia 47.839694827237295
rfoot -11.373295871883386 -11.035392753483313
rtoes 3.211908741027693
lowerback 13.073877252181429 -1.4151291921980815 -4.515226565890418
upperback -0.6532473343711376 -2.4193979352694015 2.1232856894848697
thorax -7.771337661288519 -0.943749951972491 5.299635094246334
lowerneck -12.853245286413607 -2.098462264238143 -3.286446487539731
upperneck 20.47161175215465 -2.1779124816214663 -0.08174592752258736
head 8.534951774897316 -1.2934118272566941 0.27884184836876386
lclavicle 2.9911141297728243e-16 5.531454033852598e-17
lhumerus -26.677006241859754 4.642108595269316 81.4178976590372
lradius 27.73169597379897
lwrist 9.042955352704626
lhand -29.6339996263822 20.412097099295927
lfingers 7.125020000000001
lthumb -2.9640396256002957 50.37119709122308
rclavicle 2.9911141297728243e-16 5.531454033852598e-17
rhumerus -35.71219194619023 -19.821200666463852 -74.9438046787735
rradius 23.801609257042628
rwrist 5.949954384352907
rhand -17.28750544922254 23.85369453138404
rfingers 7.125020000000001
rthumb 8.957904549566237 -5.936115588168727
